<?xml version="1.0" encoding="utf-8"?>
<!-- Generator: Adobe Illustrator 21.0.0, SVG Export Plug-In . SVG Version: 6.00 Build 0)  -->
<svg version="1.1" id="圖層_1" xmlns="http://www.w3.org/2000/svg" xmlns:xlink="http://www.w3.org/1999/xlink" x="0px" y="0px"
	 viewBox="0 0 350 350" style="enable-background:new 0 0 350 350;" xml:space="preserve">
<style type="text/css">
	.st0{fill:#3D5A45;}
	.st1{fill:#293B29;stroke:#212F0B;stroke-width:3;}
	.st2{fill:#FFFFFF;}
	.st3{font-family:'ArialMT';}
	.st4{font-size:10px;}
	.st5{fill:none;stroke:#FF7600;stroke-linejoin:round;}
	.st6{fill:#FF7600;}
</style>
<g transform="translate(-390 -153)">
	<g transform="matrix(1, 0, 0, 1, 390, 153)">
		<path class="st0" d="M72,0h206c39.8,0,72,32.2,72,72v206c0,39.8-32.2,72-72,72H72c-39.8,0-72-32.2-72-72V72C0,32.2,32.2,0,72,0z"
			/>
	</g>
	<path class="st1" d="M565,173L565,173c85.6,0,155,69.4,155,155l0,0l0,0c0,85.6-69.4,155-155,155l0,0l0,0c-85.6,0-155-69.4-155-155
		l0,0C410,242.4,479.4,173,565,173z"/>
	<text transform="matrix(1 0 0 1 559.44 227.315)" class="st2 st3 st4">12</text>
	<text transform="matrix(1 0 0 1 614.347 242.521)" class="st2 st3 st4">1</text>
	<text transform="matrix(1 0 0 1 508.158 242.521)" class="st2 st3 st4">11</text>
	<text transform="matrix(1 0 0 1 628.843 209.671)" class="st2 st3 st4">13</text>
	<text transform="matrix(1 0 0 1 490.038 209.671)" class="st2 st3 st4">23</text>
	<text transform="matrix(1 0 0 1 651.0439 278.597)" class="st2 st3 st4">2</text>
	<text transform="matrix(1 0 0 1 470.616 278.597)" class="st2 st3 st4">10</text>
	<text transform="matrix(1 0 0 1 664.785 331.757)" class="st2 st3 st4">3</text>
	<text transform="matrix(1 0 0 1 459.656 331.757)" class="st2 st3 st4">9</text>
	<text transform="matrix(1 0 0 1 651.0439 382.813)" class="st2 st3 st4">4</text>
	<text transform="matrix(1 0 0 1 473.396 382.813)" class="st2 st3 st4">8</text>
	<text transform="matrix(1 0 0 1 614.347 421.809)" class="st2 st3 st4">5</text>
	<text transform="matrix(1 0 0 1 511.405 421.809)" class="st2 st3 st4">7</text>
	<text transform="matrix(1 0 0 1 562.22 435.605)" class="st2 st3 st4">6</text>
	<text transform="matrix(1 0 0 1 681.649 260.477)" class="st2 st3 st4">14</text>
	<text transform="matrix(1 0 0 1 436.875 260.477)" class="st2 st3 st4">22</text>
	<text transform="matrix(1 0 0 1 700.245 331.757)" class="st2 st3 st4">15</text>
	<text transform="matrix(1 0 0 1 418.262 331.757)" class="st2 st3 st4">21</text>
	<text transform="matrix(1 0 0 1 681.649 403.132)" class="st2 st3 st4">16</text>
	<text transform="matrix(1 0 0 1 436.875 403.132)" class="st2 st3 st4">20</text>
	<text transform="matrix(1 0 0 1 628.842 453.813)" class="st2 st3 st4">17</text>
	<text transform="matrix(1 0 0 1 490.037 453.813)" class="st2 st3 st4">19</text>
	<text transform="matrix(1 0 0 1 559.44 191.075)" class="st2 st3 st4">24</text>
	<text transform="matrix(1 0 0 1 559.44 471.642)" class="st2 st3 st4">18</text>
	<line class="st5" x1="565" y1="193.4" x2="565" y2="217.4"/>
	<line class="st5" x1="632.3" y1="211.5" x2="620.3" y2="232.2"/>
	<line class="st5" x1="681.5" y1="260.7" x2="660.8" y2="272.7"/>
	<line class="st5" x1="699.6" y1="328" x2="675.6" y2="328"/>
	<line class="st5" x1="681.5" y1="395.3" x2="660.8" y2="383.3"/>
	<line class="st5" x1="632.3" y1="444.5" x2="620.3" y2="423.8"/>
	<line class="st5" x1="565" y1="462.6" x2="565" y2="438.6"/>
	<line class="st5" x1="497.7" y1="444.5" x2="509.7" y2="423.8"/>
	<line class="st5" x1="448.5" y1="395.3" x2="469.2" y2="383.3"/>
	<line class="st5" x1="430.4" y1="328" x2="454.4" y2="328"/>
	<line class="st5" x1="448.5" y1="260.7" x2="469.2" y2="272.7"/>
	<line class="st5" x1="497.7" y1="211.5" x2="509.7" y2="232.2"/>
	<path class="st6" d="M597.8,205.9l0.7,2.9l2.1,2l-2.9,0.7l-2,2.1l-0.7-2.9l-2.1-2l2.9-0.7L597.8,205.9z"/>
	<path class="st6" d="M654.5,238.7l-0.8,2.8l0.8,2.8l-2.8-0.8l-2.8,0.8l0.8-2.8l-0.8-2.8l2.8,0.8L654.5,238.7z"/>
	<path class="st6" d="M687.1,295.4l-2.1,2l-0.7,2.9l-2-2.1l-2.9-0.7l2.1-2l0.7-2.9l2,2.1L687.1,295.4z"/>
	<path class="st6" d="M687.1,360.8l-2.9,0.7l-2,2.1l-0.7-2.9l-2.1-2l2.9-0.7l2-2.1l0.7,2.9L687.1,360.8z"/>
	<path class="st6" d="M654.3,417.5l-2.8-0.8l-2.8,0.8l0.8-2.8l-0.8-2.8l2.8,0.8l2.8-0.8l-0.8,2.8L654.3,417.5z"/>
	<path class="st6" d="M597.6,450.1l-2-2.1l-2.9-0.7l2.1-2l0.7-2.9l2,2.1l2.9,0.7l-2.1,2L597.6,450.1z"/>
	<path class="st6" d="M532.2,450.1l-0.7-2.9l-2.1-2l2.9-0.7l2-2.1l0.7,2.9l2.1,2l-2.9,0.7L532.2,450.1z"/>
	<path class="st6" d="M475.5,417.3l0.8-2.8l-0.8-2.8l2.8,0.8l2.8-0.8l-0.8,2.8l0.8,2.8l-2.8-0.8L475.5,417.3z"/>
	<path class="st6" d="M442.9,360.6l2.1-2l0.7-2.9l2,2.1l2.9,0.7l-2.1,2l-0.7,2.9l-2-2.1L442.9,360.6z"/>
	<path class="st6" d="M442.9,295.2l2.9-0.7l2-2.1l0.7,2.9l2.1,2l-2.9,0.7l-2,2.1l-0.7-2.9L442.9,295.2z"/>
	<path class="st6" d="M475.7,238.5l2.8,0.8l2.8-0.8l-0.8,2.8l0.8,2.8l-2.8-0.8l-2.8,0.8l0.8-2.8L475.7,238.5z"/>
	<path class="st6" d="M532.4,205.9l2,2.1l2.9,0.7l-2.1,2l-0.7,2.9l-2-2.1l-2.9-0.7l2.1-2L532.4,205.9z"/>
	<circle class="st2" cx="575.6" cy="206.4" r="1"/>
	<circle class="st2" cx="586.2" cy="207.8" r="1"/>
	<circle class="st2" cx="606.7" cy="213.3" r="1"/>
	<circle class="st2" cx="616.6" cy="217.4" r="1"/>
	<circle class="st2" cx="635" cy="228" r="1"/>
	<circle class="st2" cx="643.5" cy="234.5" r="1"/>
	<circle class="st2" cx="658.5" cy="249.5" r="1"/>
	<circle class="st2" cx="665" cy="258" r="1"/>
	<circle class="st2" cx="675.6" cy="276.4" r="1"/>
	<circle class="st2" cx="679.7" cy="286.3" r="1"/>
	<circle class="st2" cx="685.2" cy="306.8" r="1"/>
	<circle class="st2" cx="686.6" cy="317.4" r="1"/>
	<circle class="st2" cx="686.6" cy="338.6" r="1"/>
	<circle class="st2" cx="685.2" cy="349.2" r="1"/>
	<circle class="st2" cx="679.7" cy="369.7" r="1"/>
	<circle class="st2" cx="675.6" cy="379.6" r="1"/>
	<circle class="st2" cx="665" cy="398" r="1"/>
	<circle class="st2" cx="658.5" cy="406.5" r="1"/>
	<circle class="st2" cx="643.5" cy="421.5" r="1"/>
	<circle class="st2" cx="635" cy="428" r="1"/>
	<circle class="st2" cx="616.6" cy="438.6" r="1"/>
	<circle class="st2" cx="606.7" cy="442.7" r="1"/>
	<circle class="st2" cx="586.2" cy="448.2" r="1"/>
	<circle class="st2" cx="575.6" cy="449.6" r="1"/>
	<circle class="st2" cx="554.4" cy="449.6" r="1"/>
	<circle class="st2" cx="543.8" cy="448.2" r="1"/>
	<circle class="st2" cx="523.3" cy="442.7" r="1"/>
	<circle class="st2" cx="513.4" cy="438.6" r="1"/>
	<circle class="st2" cx="495" cy="428" r="1"/>
	<circle class="st2" cx="486.5" cy="421.5" r="1"/>
	<circle class="st2" cx="471.5" cy="406.5" r="1"/>
	<circle class="st2" cx="465" cy="398" r="1"/>
	<circle class="st2" cx="454.4" cy="379.6" r="1"/>
	<circle class="st2" cx="450.3" cy="369.7" r="1"/>
	<circle class="st2" cx="444.8" cy="349.2" r="1"/>
	<circle class="st2" cx="443.4" cy="338.6" r="1"/>
	<circle class="st2" cx="443.4" cy="317.4" r="1"/>
	<circle class="st2" cx="444.8" cy="306.8" r="1"/>
	<circle class="st2" cx="450.3" cy="286.3" r="1"/>
	<circle class="st2" cx="454.4" cy="276.4" r="1"/>
	<circle class="st2" cx="465" cy="258" r="1"/>
	<circle class="st2" cx="471.5" cy="249.5" r="1"/>
	<circle class="st2" cx="486.5" cy="234.5" r="1"/>
	<circle class="st2" cx="495" cy="228" r="1"/>
	<circle class="st2" cx="513.4" cy="217.4" r="1"/>
	<circle class="st2" cx="523.3" cy="213.3" r="1"/>
	<circle class="st2" cx="543.8" cy="207.8" r="1"/>
	<circle class="st2" cx="554.4" cy="206.4" r="1"/>
</g>
</svg>
